<svg viewBox="0 0 24 24" xmlns="http://www.w3.org/2000/svg">
<path d="M15.3342 8.22193C14.7197 8.22193 14.2232 7.72547 14.2232 7.11097C14.2232 6.49646 14.7197 6 15.3342 6H20.889C21.5035 6 22 6.49646 22 7.11097V12.6658C22 13.2803 21.5035 13.7768 20.889 13.7768C20.2745 13.7768 19.7781 13.2803 19.7781 12.6658V9.79464L13.8969 15.6724C13.4629 16.1063 12.7581 16.1063 12.3242 15.6724L8.6684 12.0166L3.89819 16.7833C3.46422 17.2173 2.75945 17.2173 2.32548 16.7833C1.89151 16.3493 1.89151 15.6446 2.32548 15.2106L7.88031 9.65577C8.31428 9.2218 9.01905 9.2218 9.45302 9.65577L13.1123 13.315L18.2054 8.22193H15.3342Z"/>
</svg>
