<svg viewBox="0 0 24 24" xmlns="http://www.w3.org/2000/svg">
<path d="M20.9945 11.9844C20.9945 12.5469 20.5258 12.9875 19.9945 12.9875H18.9945L19.0164 17.9937C19.0164 18.0781 19.0102 18.1625 19.0008 18.2469V18.75C19.0008 19.4406 18.4414 20 17.7508 20H17.2508C17.2164 20 17.182 20 17.1477 19.9969C17.1039 20 17.0602 20 17.0164 20H16.0008H15.2508C14.5602 20 14.0008 19.4406 14.0008 18.75V18V16C14.0008 15.4469 13.5539 15 13.0008 15H11.0008C10.4477 15 10.0008 15.4469 10.0008 16V18V18.75C10.0008 19.4406 9.44142 20 8.75079 20H8.00079H7.00392C6.95704 20 6.91017 19.9969 6.86329 19.9937C6.82579 19.9969 6.78829 20 6.75079 20H6.25079C5.56017 20 5.00079 19.4406 5.00079 18.75V15.25C5.00079 15.2219 5.00079 15.1906 5.00392 15.1625V12.9875H4.00079C3.43829 12.9875 3.00079 12.55 3.00079 11.9844C3.00079 11.7031 3.09454 11.4531 3.31329 11.2344L11.3258 4.25C11.5445 4.03125 11.7945 4 12.0133 4C12.232 4 12.482 4.0625 12.6695 4.21875L20.6508 11.2344C20.9008 11.4531 21.0258 11.7031 20.9945 11.9844Z"/>
</svg>
