<svg viewBox="0 0 24 24" xmlns="http://www.w3.org/2000/svg">
<path d="M13.6875 4.6875C13.6875 4.23995 13.5097 3.81072 13.1932 3.49426C12.8768 3.17779 12.4476 3 12 3C11.5524 3 11.1232 3.17779 10.8068 3.49426C10.4903 3.81072 10.3125 4.23995 10.3125 4.6875C10.3125 5.13505 10.4903 5.56428 10.8068 5.88074C11.1232 6.19721 11.5524 6.375 12 6.375C12.4476 6.375 12.8768 6.19721 13.1932 5.88074C13.5097 5.56428 13.6875 5.13505 13.6875 4.6875ZM13.6875 19.3125C13.6875 18.8649 13.5097 18.4357 13.1932 18.1193C12.8768 17.8028 12.4476 17.625 12 17.625C11.5524 17.625 11.1232 17.8028 10.8068 18.1193C10.4903 18.4357 10.3125 18.8649 10.3125 19.3125C10.3125 19.7601 10.4903 20.1893 10.8068 20.5057C11.1232 20.8222 11.5524 21 12 21C12.4476 21 12.8768 20.8222 13.1932 20.5057C13.5097 20.1893 13.6875 19.7601 13.6875 19.3125ZM4.6875 13.6875C5.13505 13.6875 5.56428 13.5097 5.88074 13.1932C6.19721 12.8768 6.375 12.4476 6.375 12C6.375 11.5524 6.19721 11.1232 5.88074 10.8068C5.56428 10.4903 5.13505 10.3125 4.6875 10.3125C4.23995 10.3125 3.81072 10.4903 3.49426 10.8068C3.17779 11.1232 3 11.5524 3 12C3 12.4476 3.17779 12.8768 3.49426 13.1932C3.81072 13.5097 4.23995 13.6875 4.6875 13.6875ZM21 12C21 11.5524 20.8222 11.1232 20.5057 10.8068C20.1893 10.4903 19.7601 10.3125 19.3125 10.3125C18.8649 10.3125 18.4357 10.4903 18.1193 10.8068C17.8028 11.1232 17.625 11.5524 17.625 12C17.625 12.4476 17.8028 12.8768 18.1193 13.1932C18.4357 13.5097 18.8649 13.6875 19.3125 13.6875C19.7601 13.6875 20.1893 13.5097 20.5057 13.1932C20.8222 12.8768 21 12.4476 21 12ZM8.02383 18.3633C8.18057 18.2065 8.3049 18.0205 8.38973 17.8157C8.47456 17.6109 8.51821 17.3914 8.51821 17.1697C8.51821 16.9481 8.47456 16.7286 8.38973 16.5238C8.3049 16.319 8.18057 16.1329 8.02383 15.9762C7.86709 15.8194 7.68101 15.6951 7.47622 15.6103C7.27143 15.5254 7.05194 15.4818 6.83027 15.4818C6.3826 15.4818 5.95327 15.6596 5.63672 15.9762C5.32017 16.2927 5.14233 16.7221 5.14233 17.1697C5.14233 17.6174 5.32017 18.0467 5.63672 18.3633C5.95327 18.6798 6.3826 18.8577 6.83027 18.8577C7.27794 18.8577 7.70728 18.6798 8.02383 18.3633ZM8.02383 8.02031C8.18836 7.8654 8.32009 7.67901 8.41122 7.47222C8.50235 7.26543 8.55102 7.04244 8.55433 6.81648C8.55765 6.59052 8.51554 6.3662 8.43052 6.15682C8.3455 5.94744 8.21929 5.75728 8.05938 5.5976C7.89947 5.43792 7.70911 5.31199 7.49961 5.22728C7.29011 5.14256 7.06572 5.10079 6.83977 5.10444C6.61382 5.10809 6.3909 5.15708 6.18424 5.24852C5.97758 5.33995 5.79139 5.47196 5.63672 5.63672C5.32017 5.95327 5.14233 6.3826 5.14233 6.83027C5.14233 7.27794 5.32017 7.70728 5.63672 8.02383C5.95327 8.34038 6.3826 8.51821 6.83027 8.51821C7.27794 8.51821 7.70728 8.34038 8.02383 8.02383V8.02031ZM15.9762 18.3633C16.1329 18.52 16.319 18.6444 16.5238 18.7292C16.7286 18.814 16.9481 18.8577 17.1697 18.8577C17.3914 18.8577 17.6109 18.814 17.8157 18.7292C18.0205 18.6444 18.2065 18.52 18.3633 18.3633C18.52 18.2065 18.6444 18.0205 18.7292 17.8157C18.814 17.6109 18.8577 17.3914 18.8577 17.1697C18.8577 16.9481 18.814 16.7286 18.7292 16.5238C18.6444 16.319 18.52 16.1329 18.3633 15.9762C18.2065 15.8194 18.0205 15.6951 17.8157 15.6103C17.6109 15.5254 17.3914 15.4818 17.1697 15.4818C16.9481 15.4818 16.7286 15.5254 16.5238 15.6103C16.319 15.6951 16.1329 15.8194 15.9762 15.9762C15.8194 16.1329 15.6951 16.319 15.6103 16.5238C15.5254 16.7286 15.4818 16.9481 15.4818 17.1697C15.4818 17.3914 15.5254 17.6109 15.6103 17.8157C15.6951 18.0205 15.8194 18.2065 15.9762 18.3633Z" />
</svg>
