<svg viewBox="0 0 24 24" xmlns="http://www.w3.org/2000/svg">
<path d="M20.512 3.19697C20.867 3.44301 21.0534 3.86831 20.9866 4.29362L18.7365 18.9156C18.6838 19.2565 18.4764 19.5553 18.174 19.724C17.8717 19.8927 17.5096 19.9138 17.1896 19.7802L12.9849 18.0333L10.5767 20.6379C10.2638 20.9788 9.77156 21.0913 9.33914 20.9226C8.90671 20.7539 8.62545 20.3356 8.62545 19.8716V16.9332C8.62545 16.7926 8.67819 16.659 8.77311 16.5571L14.6654 10.1283C14.8693 9.90691 14.8623 9.56596 14.6513 9.35507C14.4404 9.14417 14.0994 9.13011 13.8779 9.33046L6.72699 15.6819L3.62264 14.1283C3.24998 13.942 3.01091 13.5694 3.00037 13.1547C2.98982 12.7399 3.20779 12.3533 3.56639 12.1459L19.3166 3.14776C19.6928 2.93335 20.1569 2.95444 20.512 3.19697Z" />
</svg>
